<?xml version="1.0" encoding="UTF-8"?>
<!DOCTYPE svg PUBLIC "-//W3C//DTD SVG 1.0//EN" "http://www.w3.org/TR/2001/REC-SVG-20010904/DTD/svg10.dtd">
<!-- Creator: CorelDRAW 2021 (64 Bit) -->
<svg xmlns="http://www.w3.org/2000/svg" xml:space="preserve" width="23.5761mm" height="16.67mm" version="1.0" style="shape-rendering:geometricPrecision; text-rendering:geometricPrecision; image-rendering:optimizeQuality; fill-rule:evenodd; clip-rule:evenodd"
viewBox="0 0 2357.61 1667"
 xmlns:xlink="http://www.w3.org/1999/xlink"
 xmlns:xodm="http://www.corel.com/coreldraw/odm/2003">
 <defs>
  <style type="text/css">
   <![CDATA[
    .str0 {stroke:black;stroke-width:1.59;stroke-miterlimit:22.9256}
    .str1 {stroke:#373435;stroke-width:0.6;stroke-miterlimit:22.9256}
    .fil5 {fill:none}
    .fil1 {fill:#FEFEFE}
    .fil4 {fill:#BDBFC1}
    .fil0 {fill:black}
    .fil3 {fill:lime}
    .fil2 {fill:white}
   ]]>
  </style>
 </defs>
 <g id="Camada_x0020_1">
  <metadata id="CorelCorpID_0Corel-Layer"/>
  <g id="_3096467016384">
   <path class="fil0" d="M1076.82 79.38c-0.72,1.72 -1.69,3.97 -2.91,7.05 -5.46,13.7 -1.8,11.19 -12.76,19.4 -5.65,4.22 -11.2,11.6 -10.62,22.97 1.4,27.84 22.4,10.6 8.78,45.79 -24,62.06 -48.13,125.71 -71.32,188.2 -11.06,29.81 -22.98,63.67 -35.31,93.59 -5.19,12.59 -14.33,6.77 -43.92,20.3 -15.6,7.12 -29.79,15.42 -41.72,24.77 -44.83,35.13 -78.05,88.12 -97.5,164.29 -35.43,138.73 -72.47,275.07 -107.91,413.42 -4.69,18.28 -63.71,250.8 -67.99,255.81 -4.74,5.55 -21.19,7.85 -31.53,35.13 -13.33,35.16 -4.79,83.41 24.52,95.6 3.72,26.71 8.27,30.55 33.02,37.39 108.47,30 225.13,57.9 335.12,87.43 23.05,6.2 44.71,5.61 50.7,-15 56.47,-1.17 67.57,-53.67 58.77,-92.14 -2.48,-10.85 -9.85,-21.1 -11.28,-27.17 -2.07,-8.87 84.48,-328.84 87.95,-342.9l125.23 374.4c-7.51,9.7 -17.74,13.1 -17.92,31.92 -0.15,16.7 9.92,27.57 21.04,32.27 18.12,7.67 63.91,-11.82 82.55,-18.11l311.23 -103.23c17.64,-5.63 66.19,-19.66 73.63,-29.26 19.79,-25.51 2.49,-58.38 -31.77,-57.81l-32.09 -95.38c13.84,-7.27 33.37,-11.56 48.58,-16.91 31.13,-10.95 55.39,-30.59 69.14,-59.92 25.73,-54.9 -0.24,-99.66 -17.98,-154.83 -10.59,-32.92 -21.77,-65.25 -32.59,-98.22 -11.52,-35.13 -53.99,-170.77 -67.37,-192.35 -14.4,-23.24 -39.47,-45.3 -76.94,-51.87 -46.04,-8.05 -68.67,12.41 -107.18,20.53l-16.87 -51.92c18.51,-18.13 37.04,-39.07 24.06,-75.84 -12.84,-36.34 -41.7,-39.15 -67.38,-41.85 -8.53,-33.47 -14.44,-58.34 -52.1,-76.44 -54.16,-26.04 -91.61,10.11 -101.79,13.22 -15.6,-23.04 -47.5,-35.31 -86.31,-36.31l39.43 -201.74c2.1,-9.68 2.3,-19.15 7.86,-25.05 6.07,-6.44 8.91,-3.77 13.29,-8.78 4.74,-5.42 8.08,-11.67 8.15,-24.98 0.04,-8.56 -3.66,-8.61 -2.26,-22.41 0.49,-4.84 1.16,-10.01 1.93,-15.06 0.43,-4.67 -1.62,-6.53 -8.02,-8.18 -50.63,-14.52 -105.5,-32.13 -156.1,-43.85 -7.27,-1.68 -11.85,-4.78 -15.53,4.04z"/>
   <path class="fil1" d="M624.36 1340.51l62.09 16.8c20.89,4.6 198.72,50.11 204.11,55.61 -5.28,9.54 -12.95,4.47 -23.48,1.52 -9.39,-2.63 -17.58,-4.14 -26.75,-6.57 -18,-4.75 -36.01,-9.64 -54.53,-14.37 -35.41,-9.03 -75.31,-21.83 -110.95,-28.87 -13.27,-3.21 -71.72,-21.14 -80.21,-18.38 -33.3,10.77 -44.1,99.6 2.33,112.89l103.82 26.83c91.04,23.63 182.31,49.83 274.35,71.94 26.2,6.29 47.58,14.45 65.6,-5.11 18.25,-19.82 21.02,-61.83 7.81,-84.17 -3.21,-5.41 -6.74,-7.21 -6.4,-14.72 0.27,-5.87 6.94,-29.06 8.8,-35.6 25.14,-88.27 46.75,-184.78 72.01,-274.27 3.11,-11.04 5.77,-22.38 8.77,-33.78 4.26,-16.14 4.07,-20.97 -3.35,-35.68l-34.01 131.49c-10.06,38.88 -23.06,99.93 -56.43,108.57 -16.43,4.26 -110.56,-23.89 -132.09,-29.53 -21.99,-5.78 -42.68,-11.02 -65.35,-17.04 -26.06,-6.92 -38.24,-10.14 -47.01,-33.52 -13.04,-34.79 11.34,-103.37 20.45,-138.12l68.12 -261.82c11.37,-41.39 38.53,-77.06 72.62,-89.37 -16.96,-20.38 -24.81,-42.24 -14.59,-70.04 9.23,-25.16 24.65,-32.86 53.16,-41.22 -4.95,-37.66 -2.08,-60.1 18.67,-84.23 14.63,-17.03 39.58,-33.27 74.98,-32 10.61,-26.85 4.08,-29.44 30.51,-59.78 14.57,-16.71 33.76,-23.75 59.24,-31.44l46.7 -231.38 -24.9 -4.18 -19.59 -6.03 -102.69 -26.14c-4.89,9.32 -11.62,28.17 -14.92,37.72l-89.33 236.41c-2.56,7.18 -4.71,11.31 -7.39,18.97 -12.91,36.71 -2.09,8.26 -63.53,39.33 -30.88,15.62 -60.15,45.64 -78.91,73.96 -34.39,51.95 -43.55,106 -60.12,167.27 -13.13,48.52 -156.62,591.73 -156.11,603.99l18.49 4.08z"/>
   <path class="fil2" d="M1143.29 610.66c-18.54,-0.71 -41.86,-36.31 -49.34,-55.03 -3.54,-8.85 -4.26,-21.31 -7.85,-27.91 -33.1,-1.91 -57.3,15.2 -70.68,33.57 -19.65,26.98 -17.16,50.81 -8.2,82.91 -24.96,1.08 -46.94,6.59 -57.58,32.43 -28.88,70.19 80.25,110.58 103.74,33.41 3.19,-10.51 0.97,-32.09 8.57,-39.05 7.16,2.64 7.62,3.64 4.42,25.39 -4.02,27.4 -15.54,45.32 -38.05,58.91 -2.04,40.66 31.23,74.02 69.87,75.78 41.85,1.91 75.71,-29.94 77.04,-70.28 -6.56,-5.21 -26.95,-22.13 -20.78,-33.78 10.97,0.65 10.76,15.89 24.41,23.56 23.3,13.09 60.88,5.03 67.83,-20.46 5.22,-19.12 -3.97,-28.23 -2.18,-40.36 5.02,0.15 10.01,-4.95 13.14,18.71 4.28,32.47 -14.2,27.61 0.31,47.65 22.99,31.74 58.69,52.74 106.3,41.17 49.39,-12.01 81.42,-60.85 73.86,-110.83 -3.53,-23.33 -11.76,-28.76 -17.18,-44.24 30.7,0.19 42.5,-2.24 57.69,-20.25 27.35,-32.45 2.1,-90.48 -46.39,-86.95 -16.86,1.22 -27.26,12.22 -32.98,25.65 -4.13,9.67 -0.6,8.93 -8.93,10.3 -12.45,-15.27 20.39,-38.38 27.63,-43.64 -1.44,-50.34 -48.3,-84.75 -94.88,-76.92 -19.88,3.34 -27.85,11.72 -40.46,17.92 2.05,8.09 6,12.88 9,20.62 8.4,21.73 12.57,70.78 -6.25,72.18 -6.76,-10.29 9.88,-19.52 0.94,-57 -5.14,-21.51 -13.55,-32.36 -25.02,-43.27 -23.46,-22.3 -64.44,-34.25 -103.2,-18.48 -45.56,18.57 -81.21,72.05 -46.33,127.77 16.53,26.41 31.02,26.56 31.54,40.53z"/>
   <path class="fil3 str0" d="M1128.4 1074.57l-86.06 -258.02c-10.46,-15.37 -22.81,-24.03 -23.57,-57.21 -40.61,7.88 -43.88,-4.31 -64.06,-14.1 -34.08,12.31 -61.25,47.98 -72.62,89.37l-68.12 261.82c-9.11,34.75 -33.49,103.33 -20.45,138.12 8.76,23.37 20.95,26.59 47.01,33.52 22.67,6.02 43.36,11.26 65.35,17.04 21.52,5.64 115.65,33.78 132.09,29.53 33.37,-8.64 46.38,-69.7 56.43,-108.57l34.01 -131.49z"/>
   <path class="fil4" d="M1399.02 836.35c4.61,-14.51 15.32,-25.48 33.36,-23.77 22.14,2.11 26.52,22.63 29.17,27.74 6.45,12.43 3.6,10.93 8.45,21.93l35.56 107.01c2.2,7.44 5.21,12.93 8.05,20.12l77.06 237.12c47.24,102.55 -16.85,99.12 -34.19,84.37 -11.5,-9.77 -15.39,-23.11 -18.81,-37.42 -2.31,-9.74 -3.45,-13.51 -6.66,-21.46 -4.39,-10.8 -0.48,-14.1 -11.07,-15.17 10.23,1.08 3.88,0.81 8.98,-1.04 -0.22,-13.89 -17.88,-62 -23.91,-79.98l-2.59 -7.26c-6.29,-16.14 -3.81,-28.88 -18.99,-29.49 1.08,-4.54 0.37,-8.36 -1.29,-12.85 -3.03,-8.17 0.41,-6.51 -8.95,-7.28 3.12,-0.54 13.55,3.35 8.43,-15.68 -1.44,-5.38 -3.73,-9.96 -5.55,-15.26 -3.78,-11.05 -4.12,-25.85 -16.4,-19.36 4.44,-11.38 -6.08,-12.09 -3.59,-22.46 -8.54,0.36 -6.93,-3.38 -13.28,-22.3 -3.29,-9.81 -6.31,-19.08 -9.33,-28.8l-57.51 -170.61c-43.93,7.26 -74.29,9.72 -110.8,-25.4l-16.55 -19.81c-5.17,-7.58 -1.94,-5 -6.91,-5.73 -4.78,6.53 2.51,20.63 5.57,29.43 6.74,19.38 26.34,85.64 32.29,94.25 0.13,-0.45 0.41,-1.05 0.52,-1.32 0.11,-0.27 0.4,-0.98 0.53,-1.33 0.13,-0.33 0.39,-0.95 0.54,-1.33 13.99,-34.39 47.08,-24.77 60.1,0.41 0.21,0.42 0.5,0.92 0.72,1.35 0.83,1.72 0.95,1.77 1.82,4.22l16.26 53.01c2.67,7.87 4.09,6.65 6.78,16.43l45.34 134.16c0.18,0.34 0.54,0.8 0.7,1.13 4.29,8.53 2.5,15 6.22,24.51l58.59 174.45c1.98,5.59 10.64,32.28 11.11,35.66 2.57,18.73 -5.09,18.58 -9.82,36.4 -24.28,3.64 -47.01,7.72 -56.05,-28.87 -1.43,-5.81 -1.77,-8.34 -4,-12.55 -4.19,-7.88 -0.29,-4.57 -6.8,-6.95 12.61,-12.14 10.3,0.89 0.72,-30.76 -9.26,-30.59 -3.98,-22.73 -17.26,-24.04 3.21,-5.43 0.18,-10.3 -7.31,-18.5l3.79 -4.58c-12.15,-1.43 -18.44,-35.13 -24.73,-54.61l-98.01 -294.53c-13.44,-38.58 -24.93,-80.01 -39.58,-117.74 -20.22,2.24 -19.51,6.56 -45.46,1.96 -1.09,39.53 -26.52,56.21 -51.32,71.48 0.79,7.98 22.56,73.49 26.7,77.39 0.76,-0.67 28.33,-42.71 58.75,-6.38 6.03,7.21 3.86,14.76 8.68,23.8 4.12,7.76 13.22,38.01 15.64,47.16 8.98,33.92 8.98,15.91 12.7,34.94l27.56 82.83c2.1,5.33 2.66,4.6 4.2,12 1.56,7.54 0.91,6.57 3.54,12.82 3.41,8.12 4.16,15.87 6.96,23.38 3.48,9.3 6.87,11.1 9.33,22.04 1.47,6.52 4.38,20.83 6.73,26 4.6,10.11 2.25,-1.57 5.44,10.58l25.8 83.17c3.4,9.67 2.96,4.11 5.25,10.22l18.43 60.49c7.11,32.82 -20.68,52.18 -46.95,37.23 -15.32,-8.73 -19.35,-24.22 -22.71,-42.16 -2.16,-11.53 -7.26,-13.14 -11.9,-34.54 -2.39,-11.04 -0.3,-3.56 -4.04,-10.75 -8.63,-16.61 13.65,-0.31 -18.54,-72.46 -14.1,-2.66 -6.4,-1.08 -9.51,2.59 2.61,-6.77 6.08,-5.08 0.93,-11.88 -5.98,-7.92 0.13,0.01 -5.82,-5.06 -0.29,-0.25 -3.66,-0.26 -2.68,-4.36l-124.05 -375 -24.36 1.75 161.73 491.94c9.79,28.15 22.4,78.56 37.17,91.58 13.77,12.13 31.14,16.69 50.78,9.39l48.54 -16.16c53.97,-18.76 117.62,-38.11 169.82,-57.11 33.71,-12.27 95.65,-19.47 76,-79.84 -21.63,-66.47 -43.09,-130.02 -64.7,-194.9 -11.81,-35.44 -20.99,-67.04 -32.74,-98.47l-96.91 -290.81c2.21,51.16 -29.92,88.51 -62.81,102.45 0.98,8.79 7.92,32.11 13.13,37.26z"/>
   <path class="fil1" d="M1448.7 696.64l96.91 290.81c11.75,31.43 20.92,63.03 32.74,98.47 21.61,64.88 43.07,128.44 64.7,194.9 19.65,60.37 -42.29,67.57 -76,79.84 -52.19,19 -115.85,38.34 -169.82,57.11l-48.54 16.16c-19.64,7.3 -37.01,2.74 -50.78,-9.39 -14.77,-13.02 -27.39,-63.44 -37.17,-91.58l-161.73 -491.94c-19.43,-2.67 -25.5,-4.84 -41.46,-12.25l217.84 656.72c40.47,-9.48 254.89,-89.66 272.44,-87.56 -0.58,11.16 1.99,7.01 -21.45,14.52 -9.33,2.98 -17.91,6.09 -27.12,9.14l-214.51 71.18c-19.65,6.58 -36.04,19.51 -23.31,40.64 11.4,18.94 31.9,9.53 49.55,3.76l376.2 -125.07c17.6,-5.89 41.4,-9.23 46.52,-25.97 5.54,-18.1 -5.15,-37.1 -36.09,-31.14l-234.45 -707.44 -20.42 4.94c-0.5,0.14 -1.11,0.35 -1.56,0.49l-2.96 1.13c5.04,12.69 9.38,26.71 10.48,42.53z"/>
   <path class="fil1" d="M1492.75 704.43l14.72 46.58c10.62,-1.35 37.38,-14.6 45.38,-10.34 -0.01,7.12 2.42,5.19 -7.01,8.87l-24.55 7.75c-6.96,2.4 -6.75,1.82 -9.7,5.52l1.65 6.33c28.54,-5.02 40.83,-13.89 70.25,1.44 17.71,9.23 32.34,23.71 40.14,44.45 14.89,39.65 29.19,84.84 42.59,126.69 13.48,42.15 30.07,85.45 41.85,127.08 9.63,34.04 -1.88,72.15 -31.54,91.27 -7.18,4.63 -20.57,7.77 -28.18,13.33l20.88 64.12c11.76,-1.67 35.68,-10.99 47.81,-14.97 48.33,-15.84 78.86,-58.8 74.24,-110.82 -2.01,-22.7 -49.31,-156.68 -60.05,-189.04 -10.34,-31.18 -19.95,-63.83 -31.03,-93.73 -20.27,-54.71 -27.01,-130.89 -104.23,-145.32 -19.95,-3.73 -36.87,-2.11 -55.55,4.17 -12.16,4.08 -38.33,11.18 -47.67,16.61z"/>
   <path class="fil1 str1" d="M1159.63 912.64c0.8,12.88 40.96,128.94 48.33,151.01 6.68,20.02 49.47,141.83 48.26,150.65 -4.41,2.27 5.2,2.28 -4.89,1.57 -6.25,-0.44 -0.72,0.53 -3.92,-1.61 -0.47,1.99 -0.03,3.75 2.15,4.26 1.82,1.29 4.42,2.59 6.36,5.17l43.76 137.66c5.45,17.12 12.43,29.96 20.02,34.29 26.27,14.96 56.06,-7.15 48.94,-39.97l-18.43 -60.49c-34.41,-108.7 -71.5,-226.89 -110.21,-333.89 -8.12,-22.41 -15.33,-66.86 -45.28,-69.69 -19.74,-1.89 -34.54,20.54 -35.09,21.03z"/>
   <path class="fil2 str1" d="M1399.02 836.35c-0.15,10.68 24.4,79.43 29.63,95.03 5.31,15.83 10.93,31.15 15.87,46.74 3.19,10.11 16.88,40.2 11.53,48.04 -7.3,1.14 82.97,279.42 97.31,281.79 21.25,20.51 68.42,21.33 51.27,-43.94 -22.54,-85.78 -62.82,-187.83 -91.03,-274.64 -2.84,-7.19 -5.84,-12.69 -8.05,-20.12l-35.56 -107.01c-4.85,-11 -2,-9.5 -8.45,-21.93 -2.65,-5.11 -7.03,-25.63 -29.17,-27.74 -18.04,-1.71 -28.74,9.26 -33.36,23.77z"/>
   <path class="fil2 str1" d="M1279.53 877.19c1.89,14.55 48.92,151.81 57.31,176.27 7.24,21.14 58.55,165.28 55.19,175.24 -1.61,1.94 -4.82,3.36 -3.32,5.84 11.41,30.84 25.39,78.04 39.07,105.26 3.15,6.25 7.03,10.42 11.44,13.11 29.63,15.9 59.18,2.15 49.54,-34.36 -0.47,-3.38 -9.14,-30.06 -11.11,-35.66l-58.59 -174.45c-3.71,-9.51 -1.93,-15.98 -6.22,-24.51 -0.16,-0.33 -0.51,-0.79 -0.7,-1.13l-45.34 -134.16c-2.7,-9.78 -4.11,-8.56 -6.78,-16.43l-16.26 -53.01c-0.87,-2.45 -0.98,-2.49 -1.82,-4.22 -0.21,-0.43 -0.5,-0.93 -0.72,-1.35 -13.02,-25.17 -46.11,-34.8 -60.1,-0.41 -0.15,0.37 -0.41,0.99 -0.54,1.33 -0.14,0.34 -0.43,1.06 -0.53,1.33 -0.12,0.27 -0.4,0.87 -0.52,1.32z"/>
   <path class="fil1" d="M1517.78 778.9c1.36,13.09 126.13,381.46 127.87,383.79 47.71,-12.09 65.64,-54.56 51.55,-97.2 -13.75,-41.59 -26.89,-79.65 -40.48,-120.72 -12.98,-39.24 -25.62,-81.98 -40.05,-120.85 -13.18,-35.5 -50.17,-66.83 -98.89,-45.02z"/>
   <path class="fil1" d="M1189.48 180l20.74 -37.62 -113.93 -31.67c-11.64,-2.88 -27.8,-4.09 -34.07,8.33 -13.37,26.5 27.3,33.6 47.34,38.47 13.86,3.37 71.88,18.3 79.92,22.49z"/>
   <path class="fil1" d="M1116.57 116.82l-20.74 37.62 113.93 31.67c11.64,2.88 27.8,4.09 34.07,-8.33 13.37,-26.5 -27.3,-33.6 -47.34,-38.47 -13.86,-3.37 -71.88,-18.3 -79.92,-22.49z"/>
   <path class="fil5" d="M674.86 1364.62c-9.38,-2.92 -40.17,-11.64 -47.62,-11.52l-5.53 -0.1c-8.06,34.53 -13.06,52.77 8.09,79.48 14.71,18.58 40.51,31.46 66.95,33.92 -8.31,-13.01 -27.29,-19.23 -27.24,-43.5 0.03,-15.33 10.24,-38.02 12.26,-54.3l-6.91 -3.99z"/>
   <path class="fil0" d="M1227 588.87c-57.01,-20 -79.67,43.99 -62.4,57.38 12.94,-4.89 -0.74,-10.06 8.09,-30.37 3.98,-9.15 10.23,-15.75 20.68,-19.6 15.32,-5.64 32.81,-1.85 41.21,14.01 4.48,8.47 1.78,9.16 10.54,9.65 5.62,-9.97 -4.72,-17.68 -8.71,-24.21 14.84,-19.37 37.72,-22.28 54.95,-1.98 6.46,7.62 5.25,14.45 14.13,16.24 10.46,-14.15 -24.89,-51.07 -58.05,-36.11 -9.92,4.48 -14.92,11.04 -20.44,14.98z"/>
   <path class="fil5" d="M965.76 1412.98c-29.4,15.58 -5.97,60.17 24.05,44.4 28.52,-14.98 6.94,-60.81 -24.05,-44.4z"/>
  </g>
 </g>
</svg>
