<?xml version="1.0" encoding="UTF-8"?>
<!DOCTYPE svg PUBLIC "-//W3C//DTD SVG 1.0//EN" "http://www.w3.org/TR/2001/REC-SVG-20010904/DTD/svg10.dtd">
<!-- Creator: CorelDRAW 2021 (64 Bit) -->
<svg xmlns="http://www.w3.org/2000/svg" xml:space="preserve" width="23.5761mm" height="16.67mm" version="1.0" style="shape-rendering:geometricPrecision; text-rendering:geometricPrecision; image-rendering:optimizeQuality; fill-rule:evenodd; clip-rule:evenodd"
viewBox="0 0 2357.61 1667"
 xmlns:xlink="http://www.w3.org/1999/xlink"
 xmlns:xodm="http://www.corel.com/coreldraw/odm/2003">
 <defs>
  <style type="text/css">
   <![CDATA[
    .str0 {stroke:#EDEAEA;stroke-width:1.59;stroke-miterlimit:22.9256}
    .str1 {stroke:#272525;stroke-width:0.6;stroke-miterlimit:22.9256}
    .fil3 {fill:none}
    .fil2 {fill:#272525}
    .fil4 {fill:#442A1B}
    .fil5 {fill:#5F3912}
    .fil1 {fill:#EDEAEA}
    .fil0 {fill:#FEFEFE}
    .fil6 {fill:#FFFFFD}
   ]]>
  </style>
 </defs>
 <g id="Camada_x0020_1">
  <metadata id="CorelCorpID_0Corel-Layer"/>
  <path class="fil0" d="M1669.97 947.96c-18.41,121.29 -24.74,170.28 -73.97,272.99 137.67,-16.7 291.28,-137.12 202.06,-260.8 -25.35,-35.14 -82.92,-36.19 -128.09,-12.19z"/>
  <path class="fil1 str0" d="M1197.05 735.86c3.01,-8.16 22.71,-18.88 41.62,-70.19 47.74,-129.58 -52.55,-202.69 -85.46,-249.83 -65.31,-93.55 -43.66,-172.81 -3.96,-276 9.92,-25.77 27.56,-60.03 34.33,-85.68 -29.6,31.13 -72.6,100.9 -91.7,152.2 -25.24,67.75 -27.66,136.88 7.64,201.13 17.74,32.29 41.26,57.08 67.56,81.72 4.9,4.59 11.81,11.1 16.19,16.44 31.91,38.82 49.61,86.27 43.35,140.92 -4.78,41.73 -19.06,60.11 -29.57,89.29z"/>
  <path class="fil1 str0" d="M974.22 788.68c31.13,-7.12 76.93,-62.31 89.67,-101.42 42.4,-130.16 -101.31,-154.5 -108.49,-269.61 -3.97,-63.61 27.96,-105.65 42,-157.45 -0.99,0.67 -2.39,0.5 -2.89,2.13l-20.67 26.05c-145.5,218.43 60.15,258.55 62.42,365.98 1.09,51.38 -40.58,112.81 -62.05,134.32z"/>
  <path class="fil1 str0" d="M1344.64 788.88c31.02,-9.09 78.56,-65.13 90.3,-104.97 13.95,-47.33 2.99,-83.27 -21.75,-120.65 -10.7,-16.15 -10.75,-13.94 -24.21,-26.8 -125.85,-120.26 -28.52,-220.34 -17.44,-288.47 -54.53,82.56 -122.27,164.46 -43.32,280.08 23.76,34.8 74.32,62.43 77.7,122.66 3.5,62.34 -39.05,105.95 -61.28,138.14z"/>
  <path class="fil2 str1" d="M727.69 1022.94c1.45,9.31 3.04,18.57 4.82,27.77l920.86 0c1.69,-8.9 3.31,-18.11 4.94,-27.77l-930.62 0z"/>
  <path class="fil0 str1" d="M1669.97 947.96c-18.41,121.29 -24.74,170.28 -73.97,272.99 137.67,-16.7 291.28,-137.12 202.06,-260.8 -25.35,-35.14 -82.92,-36.19 -128.09,-12.19z"/>
  <path class="fil3 str1" d="M982.67 1401.45l-185.87 -0.01c-7.94,17.86 -21.94,35.64 -41.25,50.17 33.77,38.5 108.25,28.68 173.57,28.68 71.12,0 635.86,5.01 662,-3.71 8.87,-2.96 18.7,-7.61 27.7,-13.79 -12.67,-9.63 -23.42,-21.23 -30.6,-33.51 -5.89,-10.06 -9.13,-19.33 -10.5,-27.66l-167.41 0.13 47.23 -29.63c26.91,-17.62 64.26,-45.34 82.33,-70.6 15.08,-21.08 23,-15.42 54.45,-21.79 9.9,-2 19.88,-4.25 29.93,-6.76 0.61,-1.54 1.22,-2.94 1.85,-4.14 4.29,-8.26 11.03,-15.56 17.83,-19.87 8.71,-5.52 18.41,-7.6 31.23,-5.81l9.1 2.43c3.94,2.19 7.05,3.59 10.21,5.3 76.4,-29.56 145.14,-76.87 173.28,-148.85 16.46,-42.1 16.24,-88.97 -0.17,-131.14 -14.23,-36.56 -37.94,-66.04 -68.17,-81.25 -46.14,-23.23 -80.21,-13.81 -127.62,-3.47l-1.77 -46.17c-27.37,-6.71 -917.93,-3.11 -952.07,-1.83 -5.67,176.49 24.27,354.09 145.58,478.31 36.89,37.77 64.45,56.09 119.14,84.98z"/>
  <path class="fil4" d="M1736.72 1463.97c-15.56,7.47 -39.14,17.86 -59.46,8.64 -33.04,-15 -24.24,-66.35 -53.81,-101.04 -4.51,-5.29 -13.11,-14.92 -21.25,-17.88 -8.93,-3.25 -42.59,26.69 -13.99,75.58 23.65,40.43 85.8,73.48 128.68,53.26 11.23,-5.29 13.93,-9.07 19.83,-18.56z"/>
  <path class="fil4" d="M1724.5 1460.16l14.39 -0.32c4.64,-18.56 4.89,-29.8 -5.2,-49.59 -13.79,-27.05 -40.8,-48.17 -69.29,-58.41 -13.34,-4.81 -41.37,-10.43 -53.93,-2.85 9.86,4.71 41.32,3.11 56.55,47.54 7.18,20.99 3.33,16.49 15.6,36.46 4.09,6.64 18.31,22.64 29.61,23.26 2.86,2.66 7.62,3.09 12.27,3.91z"/>
  <path class="fil4" d="M1620.02 1334.89c7.86,0.27 15.21,-0.12 22.79,0.72 7.48,0.83 13.07,3.08 20.08,3.77 10.61,-25.98 29.55,-65.68 12.26,-96.25 -12.82,-1.79 -22.52,0.29 -31.23,5.81 -6.81,4.31 -13.54,11.61 -17.82,19.87 -6.98,13.45 -13.66,50.61 -6.08,66.09z"/>
  <path class="fil5" d="M1681.56 1346.64c4.31,3.2 8.98,5.11 13.35,7.85 5.09,3.2 8.85,6.1 13.11,9.31 19.86,14.94 10.73,17.13 29.03,15.99 12.12,-0.76 26.49,-3.06 36.63,-7.12 8.34,-3.33 25.61,-11.85 24.98,-19.96 -1.64,-21.33 -29.01,-35.63 -55.76,-33.33 -20.81,1.79 -38.8,10.34 -55.08,21.8l-6.27 5.47z"/>
  <path class="fil5" d="M1744.84 1406.91c2.99,12.73 5.99,8.43 8.56,34.16 12.35,-4.53 24.52,-18.74 31.24,-29.08 8.78,-13.51 14.55,-26.32 15.51,-46.06l-9.71 15.24c-16.96,23.3 -39.17,22.12 -45.6,25.74z"/>
  <path class="fil4" d="M1700.02 1320.53c5.83,-1.62 12.03,-5 18.06,-6.97 6.27,-2.04 13.4,-2.9 19.7,-4.96 -6.14,-20.33 -19.65,-40.07 -35.47,-52.56 -6.64,-5.24 -11.03,-6.57 -18.05,-10.48 1.36,3.86 12.63,9.93 18.7,31.17 5.26,18.42 0.1,27.49 -2.94,43.8z"/>
  <path class="fil5" d="M551.65 1325.77c-26.79,3.25 -45.55,17.13 -49.77,42.91 -4.41,26.93 10.12,51.34 21.83,67.8 46.87,65.89 161.21,86.54 172.54,17.3 10.55,-64.47 -79.16,-135.95 -144.59,-128.01z"/>
  <path class="fil4" d="M651.09 1351.5c2.23,2.8 7.63,7.13 10.63,9.55 7.89,6.37 22.05,25.54 28.17,34.6 10.21,-0.04 39.77,-9.83 49.47,-13.3 7.6,-2.72 15.48,-6.16 22.26,-9.7 8.11,-4.23 13.2,-8.8 19.77,-11.91 -4.76,9.68 -23.96,24.56 -35.27,31.01 -14.98,8.54 -30.67,13.05 -49.26,17.11 8.36,30.03 13.25,44.22 -3.72,71.15 10.72,-0.16 32.25,-10.33 41.08,-14.95 87.26,-45.62 100.42,-155.08 -1.79,-148.45 -24.25,1.57 -62.76,16.85 -79.37,32.7 -1.55,1.48 -0.9,0.75 -1.96,2.18z"/>
  <path class="fil5" d="M662.07 1274.65c-1.29,9.55 0.89,20.3 -0.72,32.26 -1.46,10.89 -5.22,21.64 -6,31.02 19.58,-10.33 20.91,-13.82 45.4,-22.2 6.01,-2.06 13.37,-3.02 18.63,-5.12 0.11,-0.32 0.23,-1.15 0.24,-0.98 0.01,0.1 2.33,0.13 -4.53,-23.43 -4.45,-15.3 -11.56,-28.76 -21.02,-41.38 -2.83,-3.77 -4.81,-5.27 -7.54,-8.45 -3.07,-3.58 -3.89,-5.62 -8.21,-7.22 -4.79,-4.55 -12.97,-9.39 -21.47,-10.96 -18.17,-8.69 -45.79,6.54 -58.76,26.92 -11.98,18.85 -20.84,46.42 -18.72,74.23 35.11,6.18 39.33,15.1 59.92,23.76 2.93,-4.14 8.99,-38.83 10.15,-46.58 3.11,-20.79 1.57,-35.47 0.87,-55.53l0.39 -2.18c1.53,5.91 4.01,10.39 5.83,16.71 0.96,3.31 2.11,6.16 2.94,9.09l2.61 10.06z"/>
  <path class="fil6" d="M672.98 1460.5c-5.82,-2.99 -14.25,-5.04 -21.94,-8.9 -21.57,-10.83 -32.59,-25.74 -46.72,-45.15 -9.36,-12.85 -17.14,-22.08 -29.61,-31.63 -9.24,-7.08 -27.2,-18.16 -41.66,-20.11 23.72,13.38 44.95,39.38 60.79,60.9 17.2,23.38 36.6,46.6 79.14,44.87z"/>
  <line class="fil3 str1" x1="982.66" y1="1401.45" x2="1410.3" y2= "1401.74" />
 </g>
</svg>
