<?xml version="1.0" encoding="UTF-8"?>
<!DOCTYPE svg PUBLIC "-//W3C//DTD SVG 1.0//EN" "http://www.w3.org/TR/2001/REC-SVG-20010904/DTD/svg10.dtd">
<!-- Creator: CorelDRAW 2021 (64 Bit) -->
<svg xmlns="http://www.w3.org/2000/svg" xml:space="preserve" width="23.5761mm" height="16.67mm" version="1.0" style="shape-rendering:geometricPrecision; text-rendering:geometricPrecision; image-rendering:optimizeQuality; fill-rule:evenodd; clip-rule:evenodd"
viewBox="0 0 2357.61 1667"
 xmlns:xlink="http://www.w3.org/1999/xlink"
 xmlns:xodm="http://www.corel.com/coreldraw/odm/2003">
 <defs>
  <style type="text/css">
   <![CDATA[
    .str5 {stroke:#FEFEFE;stroke-width:11.2;stroke-miterlimit:22.9256}
    .str1 {stroke:#EDEAEA;stroke-width:11.2;stroke-miterlimit:22.9256}
    .str6 {stroke:#FEFEFE;stroke-width:1.59;stroke-miterlimit:22.9256}
    .str4 {stroke:#ECB733;stroke-width:1.59;stroke-miterlimit:22.9256}
    .str0 {stroke:#272525;stroke-width:1.59;stroke-miterlimit:22.9256}
    .str3 {stroke:#EDEAEA;stroke-width:1.59;stroke-miterlimit:22.9256}
    .str2 {stroke:#FEFEFE;stroke-width:14;stroke-miterlimit:22.9256}
    .fil2 {fill:#FEFEFE}
    .fil8 {fill:#F58634}
    .fil6 {fill:#AB3935}
    .fil7 {fill:#00A859}
    .fil0 {fill:#1D1D1D}
    .fil5 {fill:#333333}
    .fil4 {fill:#4A4A4A}
    .fil1 {fill:#EDEAEA}
    .fil3 {fill:#F7F7F7}
   ]]>
  </style>
 </defs>
 <g id="Camada_x0020_1">
  <metadata id="CorelCorpID_0Corel-Layer"/>
  <path class="fil0 str0" d="M1393.22 1412.61c1.73,-48.78 -165.09,-482.71 -182.21,-566.3 93.08,21.77 521.51,184.55 566.22,182.19 29.09,-32.82 41.04,-172.3 39.86,-224.54 -4.88,-216.33 -118.9,-405.28 -285.84,-514.6 -273.09,-178.83 -602.29,-106.62 -791.85,80.15 -385.55,379.86 -140.72,1064.69 424.09,1082.98 53.19,1.72 195.41,-8.84 229.74,-39.88z"/>
  <path class="fil1 str1" d="M1358.39 1396.93c-15.43,-84.85 -199.34,-552.49 -184.41,-587.32 22.66,-11.12 81.47,19.91 110.16,25.38 21.07,-23.44 46.17,-61.22 107.1,-43.29 41.9,12.33 62.14,46.79 61.29,101.45l308.56 102.52c33.82,-158.06 39.61,-279.95 -26.56,-421.59 -149.05,-319.06 -511.84,-445.65 -830.96,-286.82 -100.01,49.77 -197.52,150.54 -249.94,248.24 -100.88,188.04 -90.34,421.5 15.27,595.3 62.21,102.39 146.1,180.68 266.19,237.54 141.4,66.95 266.95,63.24 423.3,28.58z"/>
  <path class="fil0 str0" d="M1405.63 1433.41c-27.63,-3.29 -83.06,16.74 -114.99,22.16 -258.55,43.92 -513.6,-74.41 -648.81,-287.07 -177.53,-279.21 -101.97,-615.63 86.54,-804.74 187.1,-187.7 522.28,-263.42 801.39,-88.55 215.38,134.94 331.56,386.58 291.15,646.28 -5.36,34.44 -26.67,89.59 -22.93,119.13 19.46,6.09 41.97,14.24 62.73,21.24 30.92,10.42 39.45,18.65 50.27,-13.84 162.37,-487.81 -236.54,-1041.41 -800.59,-985.45 -178.75,17.73 -343.21,94.07 -462.65,220.47 -16.29,17.24 -26.21,22.69 -41.52,42.54 -100.2,129.79 -158.37,229.68 -178.46,415.32 -39.91,368.8 197.19,707.87 536.88,808.01 142.7,42.07 298.6,42.87 443.74,-1.54 45.89,-14.04 27.13,-18.83 -2.74,-113.96z"/>
  <path class="fil0" d="M1471.18 1488.32c65.78,-0.62 191.67,-93.83 240.08,-141.69 48.62,-48.06 141.41,-175.56 141.75,-240.21 -12.99,-11.26 -535.87,-190.33 -567.68,-185.96 -5.89,26.77 175.13,555.49 185.85,567.86z"/>
  <path class="fil2 str2" d="M1399.33 1517.46l-15.34 -51.21c-724.81,171.16 -1091.33,-591.94 -740.33,-1050.82 10.62,-13.89 19.92,-25.33 29.9,-38.3l109.5 -100.35c29.72,-21.77 53.1,-37.11 86.77,-54.8 346.07,-181.7 775.59,-32.14 931.43,322.03 71.96,163.54 70.86,294.93 29.8,474.02l50.44 17.52c109.7,-400.22 -84.96,-694.38 -315.69,-838.28 -318.28,-198.52 -688.42,-100.95 -897.74,106.21 -20.4,20.19 -49.88,54.72 -70,81.95 -282.56,382.43 -122.07,925.95 287,1100.92 166.23,71.1 328.28,85.11 514.26,31.13z"/>
  <path class="fil0 str0" d="M864.87 398.42c-268.72,65.83 -164.25,455.06 91.94,393.12 94.32,-22.8 175.23,-119.61 149.55,-240.32 -20.18,-94.86 -119,-182.81 -241.5,-152.8z"/>
  <path class="fil0 str0" d="M928.39 923.59c-264.36,66.08 -159.09,460.05 100.16,390.7 90.28,-24.15 172.17,-119.27 143.96,-241.6 -22.06,-95.68 -118.96,-180.39 -244.12,-149.1z"/>
  <path class="fil0 str0" d="M1411.69 357.13c-270.69,64.83 -165.21,451.43 86.83,394.03 95,-21.64 180.33,-120.02 153.05,-241.19 -21.05,-93.48 -117.79,-182.08 -239.88,-152.84z"/>
  <path class="fil1 str3" d="M929.8 955.78c-220.27,63.17 -124.38,390.08 93.8,327.48 211.44,-60.66 126.82,-390.75 -93.8,-327.48z"/>
  <path class="fil1 str3" d="M1412.38 389.34c-221.93,57.69 -131.67,388.71 85.88,330.03 216.69,-58.45 132.27,-386.74 -85.88,-330.03z"/>
  <path class="fil1 str3" d="M868.56 428.84c-218.6,55.55 -139.93,386.88 83.55,331.9 77.4,-19.04 146.68,-102.89 123.76,-204.74 -17.81,-79.16 -104.85,-153.2 -207.32,-127.16z"/>
  <path class="fil1 str3" d="M1468.98 1002.4c-43.6,17.29 -70.29,41.79 -89.84,80.32 -26.7,52.62 4.38,105.42 31.84,187.24 19.55,58.24 123.28,73.62 183.78,49.28 71.86,-28.91 132.49,-114.55 97.91,-215.53 -19.16,-55.95 -40.05,-51.51 -97.56,-70.15 -30.61,-9.92 -100.37,-41.37 -126.13,-31.16z"/>
  <path class="fil0" d="M1469.51 1528.88c-0.08,20.97 6.64,33.73 13.11,52.65 4.47,13.07 11.1,43.31 20.16,48.53 32.24,6.46 144.37,-53.65 169.76,-70.3 109.77,-71.99 179.86,-136.23 249.94,-248.47 18.09,-28.98 77.22,-136.78 72.42,-174.25 -19.27,-12.91 -77.65,-32.66 -101.68,-32.15 -32.86,51.39 -35.39,133.39 -162.24,261.47 -122.09,123.26 -219.54,134.33 -261.47,162.52z"/>
  <path class="fil3 str4" d="M1436.98 1340.92l42.43 133.54c73.66,-14.37 186.31,-101.15 222.48,-137.2 36.9,-36.77 121.75,-147.2 137.38,-222.77l-122.25 -39.91c26.93,102.43 17.42,173 -45.72,232.17 -66.28,62.1 -135.89,68.87 -234.32,34.17z"/>
  <path class="fil2 str5" d="M1505.3 1549l14.53 47.07c100.47,-21.82 219.83,-118.23 271.04,-169.86 35.99,-36.29 67.47,-72.12 98.69,-121.58 21.41,-33.93 62.06,-104.08 71.16,-149.83l-47 -14.68c-43.02,54.57 -61.87,204.7 -274.13,339.5 -27.63,17.55 -120.15,57.43 -134.28,69.37z"/>
  <path class="fil4" d="M1166.08 632.12c-71.03,23.9 -38.2,131.3 35.32,110.67 72.15,-20.25 40.3,-136.12 -35.32,-110.67z"/>
  <path class="fil5" d="M1009.15 281.41c-59.08,18.23 -38.29,119.9 34.26,98.57 61.01,-17.94 38.14,-120.91 -34.26,-98.57z"/>
  <path class="fil3 str4" d="M1345.3 1071.39c14.9,-13.75 25.36,-34.12 37.77,-47.61 15.54,-16.9 30.27,-24.38 48.64,-41.31 -24.95,-18.19 -95.41,-37.91 -129.94,-45.51l43.53 134.43z"/>
  <path class="fil5" d="M799.83 502.42c-52.43,32.57 -14.89,108.88 44.09,87.72 60.58,-21.74 18.95,-126.87 -44.09,-87.72z"/>
  <path class="fil6" d="M1415.55 1101.71c-13.51,5.83 -18.85,4.49 -24.54,24.72 -13.18,46.83 26.61,80 67.88,62.53 52.11,-22.06 26.36,-117.32 -43.33,-87.25z"/>
  <path class="fil5" d="M886.16 1132.97c-64.36,22.91 -28.86,113.97 34.99,91.14 52.77,-18.87 30.28,-114.38 -34.99,-91.14z"/>
  <path class="fil6" d="M1602.53 1173.18c-62.3,14.5 -43.14,112.02 24.56,94.62 61.09,-15.7 37.68,-109.11 -24.56,-94.62z"/>
  <path class="fil5" d="M878.86 1021.05c-61.24,16.96 -40.81,109.55 24.3,94.66 60.82,-13.92 40.87,-112.71 -24.3,-94.66z"/>
  <path class="fil2 str6" d="M882.73 1036.14c-41.6,11.52 -27.72,74.41 16.5,64.29 41.31,-9.45 27.76,-76.55 -16.5,-64.29z"/>
  <path class="fil5" d="M1346.34 461.12c-56.28,33.98 -12.77,110.06 43.66,87.3 59.97,-24.19 16.05,-123.35 -43.66,-87.3z"/>
  <path class="fil7" d="M1597.44 1063.76c-54.61,22.43 -30.48,112.13 36.54,91.24 56.97,-17.76 28.34,-117.88 -36.54,-91.24z"/>
  <path class="fil5" d="M1485.69 588.19c-26.46,8.83 -44.36,24.08 -33.82,62.6 6.52,23.84 33.34,40.79 64.34,29.22 56.55,-21.1 27.46,-111.18 -30.52,-91.82z"/>
  <path class="fil5" d="M989.15 528.73c-55.98,24.91 -23.2,114.19 40.38,89.57 53.23,-20.61 25.24,-118.78 -40.38,-89.57z"/>
  <path class="fil5" d="M1536.33 487.35c-59.32,27.21 -25.63,114.34 39.01,89.41 55.1,-21.25 20.74,-116.81 -39.01,-89.41z"/>
  <path class="fil5" d="M939.07 629.27c-66.36,20.64 -30.73,117.08 33.74,90.58 53.31,-21.91 27.42,-109.6 -33.74,-90.58z"/>
  <path class="fil5" d="M819.99 609.49c-12.53,4.39 -21.33,5.13 -29.14,21.7 -5.81,12.31 -6.64,28.66 -0.69,42.48 9.52,22.11 34.79,36.11 63.93,25.89 50.94,-17.86 33.16,-113.65 -34.11,-90.07z"/>
  <path class="fil5" d="M1054.53 1054.92c-25.86,11.55 -35.34,34.8 -22.75,64.14 8.05,18.76 35.07,35.48 64.73,22.43 55.06,-24.24 23.93,-115.99 -41.98,-86.57z"/>
  <path class="fil5" d="M1368.71 566.01c-58.24,14.74 -43.76,107.7 23.5,94.77 60.51,-11.63 41.71,-111.27 -23.5,-94.77z"/>
  <path class="fil8" d="M1499.77 1016.98c-65.22,19.13 -34.35,111.22 27.65,93.63 56.5,-16.03 35.5,-112.15 -27.65,-93.63z"/>
  <path class="fil7" d="M1487.39 1199.54c-53.9,16.25 -41.92,109.32 24.27,94.74 60.69,-13.38 42.82,-114.97 -24.27,-94.74z"/>
  <path class="fil5" d="M912.31 450.76c-64.99,21.76 -30.69,112.46 31.46,91.87 53.76,-17.81 32.5,-113.29 -31.46,-91.87z"/>
  <path class="fil5" d="M1459.25 409.54c-67.98,21.92 -32.18,114.77 30.54,91.81 50.71,-18.57 32.24,-112.05 -30.54,-91.81z"/>
  <path class="fil5" d="M1005.03 1152.59c-56.9,17.08 -36.34,111.91 28.63,93.68 59.07,-16.58 35.42,-112.9 -28.63,-93.68z"/>
  <path class="fil5" d="M977.04 976.98c-64.01,26.57 -22.38,114.25 37.16,88.27 54.66,-23.85 21.93,-112.79 -37.16,-88.27z"/>
  <path class="fil0" d="M1567.29 797.22c-46.99,16.54 -43.95,43.61 -21.77,44.51 25.08,1.02 15.31,-17.62 48.23,-18.62 25.42,-0.77 41.86,14.39 48.17,32.52 13.1,37.63 -13.78,42.76 -11.32,63.96 4.67,40.25 61.84,-10.1 41.45,-73.12 -12.37,-38.23 -56.88,-66.11 -104.76,-49.25z"/>
  <path class="fil0" d="M1165.21 449.13c5.94,-34.86 -43.05,-49.14 -9.47,-93.39 35.17,-46.35 62.4,-0.8 95.65,-9.2 6.42,-32.44 -21.47,-41.01 -51.19,-42.23 -30.9,-1.26 -53.97,13.13 -67.15,28.8 -31.79,37.8 -20.46,124.55 32.15,116.02z"/>
  <path class="fil0" d="M1263.16 1250.39c-13.9,24.03 7.84,36.03 -14.35,63.96 -45.57,57.36 -95.66,-23.31 -95.66,-23.31 -29.94,-18 -18.54,28.92 -9.22,41.34 22.53,30.02 66.48,44.52 110.35,18.86 30.03,-17.57 63.36,-108.17 8.88,-100.84z"/>
  <path class="fil5" d="M1004.33 801.13c-58.05,20.88 -24.04,111.68 36.51,86.33 51.43,-21.52 24.7,-108.35 -36.51,-86.33z"/>
  <path class="fil0" d="M1679.67 678.84c-21.95,11.5 -33.49,30.12 -17.82,56.9 9.03,15.42 34.11,27.05 56.73,15.21 41.3,-21.59 14.52,-100.12 -38.92,-72.12z"/>
  <path class="fil0" d="M684.26 950.82c-10.13,14.28 -23.28,25.67 -16.67,49.87 5.97,21.88 28.52,32.58 54.18,24.36 34.39,-11.02 43.74,-89.08 -37.51,-74.23z"/>
  <path class="fil2 str6" d="M985.3 989.43c-41.6,11.52 -27.72,74.41 16.5,64.29 41.31,-9.45 27.76,-76.56 -16.5,-64.29z"/>
  <path class="fil2 str6" d="M1067.36 1065.7c-41.6,11.52 -27.72,74.41 16.5,64.29 41.31,-9.45 27.76,-76.55 -16.5,-64.29z"/>
  <path class="fil2 str6" d="M1011.48 1167.38c-41.6,11.52 -27.72,74.41 16.5,64.29 41.31,-9.45 27.76,-76.55 -16.5,-64.29z"/>
  <path class="fil2 str6" d="M893.1 1146.6c-41.6,11.52 -27.72,74.41 16.5,64.29 41.31,-9.45 27.76,-76.55 -16.5,-64.29z"/>
  <path class="fil2 str6" d="M1429.26 1112.84c-41.6,11.52 -27.72,74.41 16.5,64.29 41.31,-9.45 27.76,-76.55 -16.5,-64.29z"/>
  <path class="fil2 str6" d="M1503.68 1031.77c-41.6,11.52 -27.72,74.41 16.5,64.29 41.31,-9.45 27.76,-76.56 -16.5,-64.29z"/>
  <path class="fil2 str6" d="M1607.75 1076.75c-41.6,11.52 -27.72,74.41 16.5,64.29 41.31,-9.45 27.76,-76.56 -16.5,-64.29z"/>
  <path class="fil2 str6" d="M1605.54 1188.81c-41.6,11.52 -27.72,74.41 16.5,64.29 41.31,-9.45 27.76,-76.55 -16.5,-64.29z"/>
  <path class="fil2 str6" d="M1492.91 1214.4c-41.6,11.52 -27.72,74.41 16.5,64.29 41.31,-9.45 27.76,-76.56 -16.5,-64.29z"/>
  <path class="fil2 str6" d="M1489.55 602.66c-41.6,11.52 -27.72,74.41 16.5,64.29 41.31,-9.45 27.76,-76.56 -16.5,-64.29z"/>
  <path class="fil2 str6" d="M1546.1 499.87c-41.6,11.52 -27.72,74.41 16.5,64.29 41.31,-9.45 27.76,-76.56 -16.5,-64.29z"/>
  <path class="fil2 str6" d="M1462.56 423.88c-41.6,11.52 -27.72,74.41 16.5,64.29 41.31,-9.45 27.76,-76.56 -16.5,-64.29z"/>
  <path class="fil2 str6" d="M1361.16 471c-41.6,11.52 -27.72,74.41 16.5,64.29 41.31,-9.45 27.76,-76.55 -16.5,-64.29z"/>
  <path class="fil2 str6" d="M1372.43 581.14c-41.6,11.52 -27.72,74.41 16.5,64.29 41.31,-9.45 27.76,-76.55 -16.5,-64.29z"/>
  <path class="fil2 str6" d="M1688.48 682.4c-41.6,11.52 -27.72,74.41 16.5,64.29 41.31,-9.45 27.76,-76.55 -16.5,-64.29z"/>
  <path class="fil2 str6" d="M1176.08 655c-41.6,11.52 -27.72,74.41 16.5,64.29 41.31,-9.45 27.76,-76.55 -16.5,-64.29z"/>
  <path class="fil2 str6" d="M1013.02 812.79c-41.6,11.52 -27.72,74.41 16.5,64.29 41.31,-9.45 27.76,-76.55 -16.5,-64.29z"/>
  <path class="fil2 str6" d="M698.23 956.43c-41.6,11.52 -27.72,74.41 16.5,64.29 41.31,-9.45 27.76,-76.56 -16.5,-64.29z"/>
  <path class="fil2 str6" d="M826.58 622.42c-41.6,11.52 -27.72,74.41 16.5,64.29 41.31,-9.45 27.76,-76.55 -16.5,-64.29z"/>
  <path class="fil2 str6" d="M815.95 511.83c-41.6,11.52 -27.72,74.41 16.5,64.29 41.31,-9.45 27.76,-76.55 -16.5,-64.29z"/>
  <path class="fil2 str6" d="M917.63 464.7c-41.6,11.52 -27.72,74.41 16.5,64.29 41.31,-9.45 27.76,-76.55 -16.5,-64.29z"/>
  <path class="fil2 str6" d="M1018.49 298.63c-41.6,11.52 -27.72,74.41 16.5,64.29 41.31,-9.45 27.76,-76.55 -16.5,-64.29z"/>
  <path class="fil2 str6" d="M1349.6 825.95c-17.94,4.97 -29.69,15.66 -36,28.49l104.36 35.06c5.26,-35.5 -21.05,-76.66 -68.36,-63.55z"/>
  <path class="fil2 str6" d="M1000.79 541c-41.6,11.52 -27.72,74.41 16.5,64.29 41.31,-9.45 27.76,-76.55 -16.5,-64.29z"/>
  <path class="fil2 str6" d="M944.44 643.56c-41.6,11.52 -27.72,74.41 16.5,64.29 41.31,-9.45 27.76,-76.55 -16.5,-64.29z"/>
 </g>
</svg>
