<?xml version="1.0" encoding="UTF-8"?>
<!DOCTYPE svg PUBLIC "-//W3C//DTD SVG 1.0//EN" "http://www.w3.org/TR/2001/REC-SVG-20010904/DTD/svg10.dtd">
<!-- Creator: CorelDRAW 2021 (64 Bit) -->
<svg xmlns="http://www.w3.org/2000/svg" xml:space="preserve" width="23.5761mm" height="16.67mm" version="1.0" style="shape-rendering:geometricPrecision; text-rendering:geometricPrecision; image-rendering:optimizeQuality; fill-rule:evenodd; clip-rule:evenodd"
viewBox="0 0 2357.61 1667"
 xmlns:xlink="http://www.w3.org/1999/xlink"
 xmlns:xodm="http://www.corel.com/coreldraw/odm/2003">
 <defs>
  <style type="text/css">
   <![CDATA[
    .str0 {stroke:#272525;stroke-width:0.6;stroke-miterlimit:22.9256}
    .str3 {stroke:#CE4D26;stroke-width:0.6;stroke-miterlimit:22.9256}
    .str1 {stroke:#EDEAEA;stroke-width:0.6;stroke-miterlimit:22.9256}
    .str2 {stroke:#FED95A;stroke-width:0.6;stroke-miterlimit:22.9256}
    .str4 {stroke:yellow;stroke-width:0.6;stroke-miterlimit:22.9256}
    .fil4 {fill:none}
    .fil6 {fill:#E6E7E8}
    .fil3 {fill:#96989A}
    .fil0 {fill:#727376}
    .fil1 {fill:#272525}
    .fil2 {fill:#EDEAEA}
    .fil5 {fill:#FDFDFD}
   ]]>
  </style>
 </defs>
 <g id="Camada_x0020_1">
  <metadata id="CorelCorpID_0Corel-Layer"/>
  <path class="fil0 str0" d="M1609.96 1319.97l83 0.09c4.98,0.82 10.34,0.88 16.04,0.02l89.75 0.1c4.38,0.69 8.92,0.72 13.54,0.02l406.93 0.44c7.92,-22.57 28.88,-317.9 23.78,-327.82l-649.64 -0.73c-16.25,3.17 -8.06,29.02 -5.48,60.23 3.63,43.92 13.04,244.55 22.08,267.66z"/>
  <circle class="fil1 str0" cx="1913.66" cy="1156.39" r="151.62"/>
  <circle class="fil2 str1" cx="1913.66" cy="1156.39" r="126.36"/>
  <path class="fil3 str0" d="M143.5 1173.6c63.47,1.52 387.72,5.4 484.38,0.59 0.46,-63.57 34.84,-64.58 61.65,-82.34 4.54,-57.59 31.48,-106.67 62.97,-139.92 23.75,-25.07 17.17,-25.29 20.77,-79.56 1.39,-20.89 12.22,-78.36 3.36,-93.66 -8.05,-7.26 -508.07,-2.72 -627.83,-2.71 -44.32,0 -36.06,-12.49 -30.88,77.68 1.99,34.67 4.94,72.73 7.93,106.8 3.41,38.81 11.05,189.13 17.64,213.13z"/>
  <path class="fil4 str2" d="M717.81 1092.39l843.67 1.13c0.77,-46.65 -14.58,-97.18 1.97,-116.69 8.32,-9.81 17.58,-15.53 6.62,-31.7 -12.52,-18.48 -81.13,-55.83 -108.89,-68.9 -171.18,-80.58 -421.11,-71.37 -586.3,17.28 -61.61,33.07 -153.48,105.25 -157.07,198.88z"/>
  <path class="fil5 str0" d="M701 1477.43c-7.93,-41.7 -26.86,-39.31 3.12,-100.49 -23.81,-8.32 -50.58,-22.05 -59.86,-48.59 -5.31,-15.17 -8.03,-51.85 2.76,-69.99 5.46,-9.19 6.78,-7.04 11.59,-17.99 -13.52,-18.9 0.01,8.99 -28.81,-36.84l-471.34 -0.06 9.59 202.29c4.49,88.27 39.97,91.67 124.26,91.67l318.16 0c38.37,0.01 67.18,3.84 90.54,-19.99z"/>
  <polygon class="fil5 str0" points="133.49,746.91 759.34,747.44 768.31,584.26 273.58,584.16 270.46,583.58 125.5,584.27 "/>
  <path class="fil4 str2" d="M1564.97 1497.33c19.34,-0.01 37.35,0.18 49.8,-10.54 -17.04,-50.65 -12.73,-41.47 -16.02,-103.14l-94.26 -0.5c-6.08,13.51 -18.06,46.3 -36.39,48.62 -26.01,3.29 -32.25,-28.01 -41.09,-46.79l-560.76 -0.71c-29.98,0 -111.96,-6.2 -130.77,5.8 -36.29,23.15 -14.03,72.18 10.63,92.05 27.98,22.54 82.6,15.24 123.26,15.25l695.6 -0.04z"/>
  <path class="fil1 str0" d="M417.86 812.75c-48.86,9.97 -81.2,30.16 -106.11,63.45 -92.96,124.29 15.05,297.63 166.28,268.73 78.61,-15.02 155.03,-94.85 135.45,-194.92 -16.67,-85.16 -97.84,-157.22 -195.62,-137.26z"/>
  <path class="fil5 str0" d="M1602.62 963.03l623.67 -0.01c5.3,-20.66 6.21,-91.42 7.88,-117.25 2.67,-41.42 -9.95,-30.24 -84.75,-19.4 -248.44,36.01 -270.09,32.54 -515.68,-6.97 -52.42,-8.43 -40.57,-3.15 -31.12,143.64z"/>
  <path class="fil5 str0" d="M2203.85 1349.93l-577.46 -0.46c-1.28,16.46 2.76,95.14 7.52,109.03 26.58,77.59 134.71,4.91 280.42,4.48 58.29,-0.17 146.74,18.03 203.55,29.39 92.6,18.52 85.58,-65.69 85.97,-142.45z"/>
  <path class="fil6 str0" d="M426.55 839.94c-71.14,10.87 -131.39,74.38 -119,160.12 10.31,71.33 79.6,130.49 161.94,117.43 67.72,-10.74 129.03,-76.58 115.96,-161 -10.74,-69.4 -76.92,-129.08 -158.89,-116.55z"/>
  <path class="fil4 str3" d="M1569.51 1199.01l-5.18 -76.47c-59.09,-4.41 -287.16,-0.63 -364.32,-0.66 -75.94,-0.02 -105.93,-8.58 -161.11,19.71 -31.59,16.2 -88.17,59.47 -97.4,86.59l546.39 0.63 29.53 -0.35 53.27 -0.49 -1.18 -28.97z"/>
  <path class="fil4 str3" d="M792.74 1256.09l-69.05 -0.46 -26.23 -0.24c-20.66,-0.11 -25.53,5.22 -30.36,23.49 -4.58,17.34 -1.64,31.96 6.6,44.89 16.41,25.75 43.4,27.02 80.25,27.06l647.56 0.05c-7.32,-24.26 -55.77,-57.52 -74.55,-68.91 -47.43,-28.78 -53.45,-25.02 -117.6,-25.03 -62.34,-0.01 -238.28,-2.93 -286.97,0.65 -11.91,15.81 -9.6,41.25 -34.41,42.44 -26.4,1.26 -24.2,-26.19 -39.57,-39.04 -2.69,-8.08 1.37,-3.51 -7.12,-6.02l-48.56 1.11z"/>
  <path class="fil5 str0" d="M60.08 555.94l772.99 -0.15c-14.01,-91.57 -29.87,-69.85 -157.1,-69.85l-455.42 0c-35.71,0 -77.95,-2.58 -112.48,-1.08 -39.03,1.7 -42.98,35.46 -47.99,71.08z"/>
  <path class="fil5 str0" d="M143.02 456.98l607.02 0.13c-2.18,-23.7 -7.22,-61.21 -24.04,-68.38 -8.82,-3.75 -548.69,-3.22 -556.65,-0.73 -19.36,6.03 -23.49,44.39 -26.32,68.98z"/>
  <path class="fil4 str2" d="M1796.06 812.93l47.1 5.78c-2.37,-38.92 -20.94,-262.99 -29.58,-282.2 -10.63,-3.37 -31.04,-3.92 -40.84,1 -11.55,5.79 -7.17,20.15 -5.87,32.23 3.08,28.7 5.53,55.81 8.07,84.06 4.67,51.98 6.33,112.74 21.11,159.13z"/>
  <path class="fil4 str3" d="M829.2 1228.34c-4.39,-20.34 -39.58,-64.86 -54.65,-83.59 -18.1,-22.49 -12.87,-22.78 -45.49,-22.89 -27.33,-0.09 -37.57,-4.57 -58.49,13.3 -27.22,23.26 -19.78,75.87 21.34,89.46 23.66,7.82 107.98,4.9 137.28,3.73z"/>
  <path class="fil4 str4" d="M884.96 1262.32c0.59,-0.48 1.42,-2.08 1.63,-1.58 0.32,0.75 29.93,-54.16 49.72,-75.03 9.78,-10.32 19.59,-21.08 31.36,-31.09 8.45,-7.19 30.42,-18.82 36.44,-29.18l-204.32 -0.25c2.36,10.21 34.94,53.87 43.33,66.75 13.85,21.28 25.99,49.51 41.85,70.37z"/>
  <path class="fil4 str4" d="M1511.54 1318.85c5.5,-10.98 12.4,-20.98 19.32,-31.4 5.33,-8.03 19.17,-20.94 20.98,-30.2l-44.06 -0.09 -162.95 0.03c3.05,4.97 29.73,22.56 35.56,27.4 63.9,52.98 71.28,94.97 84.77,110.53 10.29,-11.26 29.26,-54.01 46.38,-76.26z"/>
  <path class="fil4 str2" d="M2102.51 620.79l-12.78 62.3c-2.04,21.98 -8.15,41.24 -10.81,60.68 -2.98,21.74 -8.34,41.93 -10.81,64.77l53.75 -6.72 30.19 -157.31c3.16,-21.82 8.02,-38.79 6.48,-46.13 -4.26,-20.26 -28.36,-19.72 -47.11,-15.14 -5.19,10.03 -7.54,23.63 -8.92,37.55z"/>
  <path class="fil4 str2" d="M1640.58 619.72c-1.44,16.65 58.37,169.86 66.33,182.06l56.2 7.32c-7.66,-32.86 -32.83,-89.75 -46.06,-123.18 -18.89,-47.72 -23.31,-85.29 -46.96,-79.85 -8.13,1.87 -24.6,10.33 -29.52,13.65z"/>
  <path class="fil4 str2" d="M2035.84 677.81l-1.24 -37.71c-6.95,-12.17 -30.76,-10.67 -46.4,-8.94 -6.83,25.14 -12.98,155.78 -12.21,188.33 74.13,-5.15 48.56,10.44 59.85,-141.68z"/>
  <path class="fil4 str2" d="M1888.42 819.41c0.76,0.47 1.97,0.08 2.43,1.12 0.47,1.04 1.83,0.84 2.5,1.02l46.14 1.03c1.57,-31.25 1.54,-152.35 -5.91,-172.02 -61.57,-17.88 -48.75,21.92 -48.05,59.52 0.46,24.99 -1.33,90.43 2.88,109.32z"/>
  <path class="fil4 str3" d="M1546.38 1320.36c-7.08,4.68 -12.94,15.08 -17.75,26.06 13.78,9.36 59.62,5.67 66.81,3.12 -2.43,-12.57 -10.8,-8.33 -15.66,-26.95 -3.35,-12.84 -1.19,-28.39 -4.71,-40.45 -7.8,3.59 -24.19,30.21 -28.69,38.22z"/>
  <path class="fil1 str0" d="M872.71 105.96c35.37,-14.56 27.6,-54.11 -18.4,-39.23 -46,14.88 -269.22,102.82 -269.22,102.82l0 197.52 45.67 -0.49 -1 -143.32c-0.11,-15.48 11.55,-23.81 25.35,-29.84 69.7,-30.45 182.23,-72.9 217.6,-87.46z"/>
 </g>
</svg>
