<?xml version="1.0" encoding="UTF-8"?>
<!DOCTYPE svg PUBLIC "-//W3C//DTD SVG 1.0//EN" "http://www.w3.org/TR/2001/REC-SVG-20010904/DTD/svg10.dtd">
<!-- Creator: CorelDRAW 2021 (64 Bit) -->
<svg xmlns="http://www.w3.org/2000/svg" xml:space="preserve" width="23.5761mm" height="16.67mm" version="1.0" style="shape-rendering:geometricPrecision; text-rendering:geometricPrecision; image-rendering:optimizeQuality; fill-rule:evenodd; clip-rule:evenodd"
viewBox="0 0 2357.61 1667"
 xmlns:xlink="http://www.w3.org/1999/xlink"
 xmlns:xodm="http://www.corel.com/coreldraw/odm/2003">
 <defs>
  <style type="text/css">
   <![CDATA[
    .str1 {stroke:#272525;stroke-width:5.6;stroke-miterlimit:22.9256}
    .str0 {stroke:#272525;stroke-width:0.6;stroke-miterlimit:22.9256}
    .fil0 {fill:none}
    .fil2 {fill:#FEFEFE}
    .fil3 {fill:#272525}
    .fil1 {fill:white}
   ]]>
  </style>
 </defs>
 <g id="Camada_x0020_1">
  <metadata id="CorelCorpID_0Corel-Layer"/>
  <path class="fil0 str0" d="M1138.6 85.93c-116.34,9.61 -211.52,44.15 -300.07,90.78 -46.55,24.51 -105.12,65.74 -142.69,98.22 -9.81,8.48 -15.24,16.44 -25.16,25.29 -153.29,136.84 -254.23,368.36 -235.65,631.46 10.85,153.7 78.39,303.26 168.2,415.68 273.45,342.28 816.97,395.91 1144.01,71.85 249.84,-247.57 315.23,-623.48 145.1,-930.28 -35.74,-64.44 -75.39,-118.56 -123.8,-167.45 -165.43,-167.03 -379.61,-256.23 -629.93,-235.54z"/>
  <path class="fil1 str0" d="M1148.43 384.41c-251.03,29.65 -461.89,247.1 -433.94,534.52 42.47,436.77 595.19,585.55 853.99,270.7 73.81,-89.79 134.71,-209.44 117.29,-372.02 -26.58,-248.13 -253.85,-466.69 -537.35,-433.2z"/>
  <path class="fil2 str0" d="M193.49 564.06l-38.88 -0.38 10.69 -343.32 -28.66 0.91c-11.07,40.17 -40.84,296.62 -34.56,330.63 16.74,90.66 128.17,111.43 105.43,269.46 -13.14,91.35 -21.15,19.68 -21.02,165.08 0.06,63.32 0.03,126.66 0,189.98 -0.03,61.91 0.15,123.86 -0.02,185.76 -0.12,47.51 -16.48,137.2 55.74,136.63 65.43,-0.52 54.71,-75.4 54.53,-132.41l-1.05 -462.94c-3.66,-27.89 -11.48,-53.16 -14.55,-81.89 -19,-177.84 85.7,-175.34 100.07,-274.44 5.16,-35.58 -23.46,-229.35 -29.33,-294.88 -2.93,-32.68 4.66,-31.84 -35.98,-31.9l9.34 341.07 -38.22 0.7 -1.25 -306.17c0.04,-1.81 0.11,-21.35 0.07,-21.55 -4.53,-21.3 8.25,-10.74 -14.06,-13.87 -12.28,-0.02 -15.07,0.9 -14.51,31.06l0.26 311.09 -32.8 1.79 -0.27 -343.63 -29.94 -0.25 -1.04 343.48z"/>
  <path class="fil3 str0" d="M187.78 898.9c-1.4,14.97 -2.13,39.45 -2.09,84.37 0.06,64.25 0.03,128.53 0,192.78 -0.03,62.82 0.15,125.68 -0.02,188.5 -0.12,48.21 -16.73,139.22 56.56,138.64 66.39,-0.53 55.51,-76.51 55.33,-134.36l-1.07 -469.75 -0.02 -0.17 -108.69 0z"/>
  <path class="fil0 str0" d="M2095.54 918.88c30.1,18.18 45.88,17.13 61.63,48.24 14.24,28.13 12.98,65.83 3.09,96.8 -19.63,61.47 -8.22,148.11 -7.86,218.02 0.27,51.63 -12.14,173.96 18.71,203.1 26.02,24.58 65.28,12.79 79.92,-9.7 17.48,-26.87 8.89,-196.85 9.12,-248.28l-2.57 -1005.63c-75.56,-3.67 -126.64,246.37 -134.82,294.04 -16.78,97.81 -38.1,306.23 -27.21,403.4z"/>
  <path class="fil3 str0" d="M2150.2 1096.75c-7.43,57.77 0.2,126.73 0.49,184.59 0.28,53.3 -12.53,179.57 19.31,209.66 26.86,25.38 67.39,13.2 82.5,-10.02 18.05,-27.74 9.17,-203.21 9.41,-256.3l-0.33 -127.93 -111.39 0z"/>
  <circle class="fil0 str1" cx="1209.94" cy="859.17" r="693.6"/>
 </g>
</svg>
